<svg xmlns="http://www.w3.org/2000/svg" width="94" height="36" viewBox="0 0 94 36">
    <g fill="#767676" fill-rule="evenodd" opacity=".6">
        <path fill-rule="nonzero" d="M0 18.328v17.378h94V.949H0v17.379zm92.43 0V34.14l-45.405-.017L1.612 34.1l-.025-15.797-.016-15.789H92.43v15.814z"/>
        <path d="M8.102 9.383v.445l.356.058c.19.024.47.074.62.098l.264.042-.016 8.293-.025 8.286-.595.066-.604.074v.972H14.385v-.972l-.595-.074-.604-.066-.024-3.772-.017-3.764h8.267v3.74c0 3.12-.016 3.747-.115 3.78-.066.024-.38.074-.703.107l-.587.057v.964h6.449v-.972l-.554-.058c-.298-.033-.596-.074-.662-.099-.09-.032-.107-1.515-.107-8.302v-8.26l.33-.05c.182-.024.48-.074.662-.099l.33-.049v-.889h-6.448v.889l.397.05c.215.032.529.074.703.098l.305.05v7.066h-8.267v-7.066l.356-.058c.975-.148.884-.09.884-.585V8.94H8.102v.444zM31.325 9.17c-1.72.889-1.033 3.475.918 3.475.587 0 1.041-.214 1.422-.65.62-.726.62-1.681-.009-2.406-.578-.683-1.512-.848-2.33-.42zM37.782 9.342v.404l.562.066.554.074.025 8.417.016 8.409-.223.05c-.132.024-.388.065-.579.09l-.355.058v.807h5.87v-.807l-.348-.058a9.853 9.853 0 0 1-.578-.09l-.232-.05V8.939h-4.712v.403zM49.133 11.03l-1.678.503v2.841H44.892v1.236h2.472l.025 4.999c.033 5.568.033 5.51.603 6.3.868 1.187 3.464 1.31 6.556.305l.513-.173v-.906l-.248.058c-.14.033-.728.058-1.307.058-1.504.008-1.984-.173-2.348-.906l-.19-.387-.024-4.678-.025-4.67h3.149v-1.236h-3.141V12.44c0-1.063-.025-1.936-.058-1.927-.041.008-.818.238-1.736.518z"/>
        <path fill-rule="nonzero" d="M61.84 14.012c-1.24.165-2.786.782-3.654 1.466-1.017.807-1.836 2.092-2.216 3.467-.256.923-.322 2.974-.132 4.069.273 1.532.72 2.479 1.62 3.385 1.075 1.079 2.555 1.606 4.795 1.697 2.365.107 4.3-.52 5.705-1.837 1.33-1.244 1.95-2.685 2.042-4.72.058-1.292-.066-2.272-.422-3.31-.364-1.08-.71-1.63-1.496-2.413-.538-.544-.81-.733-1.447-1.055-1.083-.527-1.918-.716-3.348-.757-.637-.017-1.29-.009-1.447.008zm1.488 1.021c.967.181 1.629.733 2.108 1.771.521 1.12.703 2.207.703 4.275 0 4.126-1.009 5.987-3.266 5.995-.818.009-1.413-.222-1.918-.75-1.05-1.07-1.562-3.557-1.347-6.473.215-2.923 1.1-4.505 2.67-4.818.488-.09.562-.09 1.05 0z"/>
        <path d="M80.293 14.135c-1.034.132-2.307.7-3.39 1.516-.33.247-.645.453-.686.453-.041 0-.075-.387-.075-.865v-.865H71.43v.89l.397.05c.215.032.488.073.62.098l.223.05v11.25l-.471.05c-.769.09-.769.09-.769.551v.404H77.383v-.412c0-.23-.025-.412-.058-.42-.042-.008-.306-.05-.604-.107l-.537-.09v-9.555l.413-.271a7.251 7.251 0 0 1 1.075-.527c.57-.231.76-.264 1.405-.272.819 0 1.2.14 1.63.593.652.683.743 1.45.71 6.284l-.025 3.747-.537.09c-.298.059-.562.1-.595.108-.042.008-.067.19-.067.42v.412H86.146v-.404c0-.461 0-.461-.76-.543l-.472-.058-.025-4.793c-.024-4.744-.033-4.794-.223-5.362-.256-.783-.504-1.186-1-1.63-.488-.437-1.108-.693-1.935-.8-.661-.09-.719-.09-1.438.008zM29.266 14.778v.403l.397.05c.215.033.488.074.62.099l.224.05-.017 5.65-.025 5.657-.537.09c-.298.059-.562.1-.595.108-.042.008-.067.19-.067.42v.412h5.961l-.025-.38c-.033-.452-.09-.501-.744-.567l-.48-.05V14.374h-4.712v.404z"/>
    </g>
</svg>
