<svg xmlns="http://www.w3.org/2000/svg" width="397" height="181" viewBox="0 0 397 181">
    <g fill="#FFF" fill-rule="evenodd">
        <path d="M141.718 118.694h35.18V0h-35.18v118.694zM290.95.001v28.706h35.18v89.989h35.18V28.707h35.18V.001H290.95zm-219.591 0v42.552H36.18V.001H1v118.695h35.18V71.344h35.179v47.352h35.18V.001h-35.18zM212.079 0l43.69 61.939V0zM212.078 56.755v61.939h43.692zM21.498 154.888h-.358c-.531-1.726-2.103-5.811-5.896-7.194l-.086-.035a8.703 8.703 0 0 0-2.051-.256c-4.716 0-7.075 4.819-7.075 11.912 0 7.21 2.65 11.654 7.212 11.654.513 0 1.145-.051 1.846-.222l.154-.085c3.76-1.367 5.383-5.503 5.896-7.195h.358l-.495 6.955c-2.65.872-5.212 1.436-7.845 1.453h-.153C5.383 171.875 0 166.748 0 159.4c0-7.451 5.007-12.904 12.953-12.904h.205c2.633.018 5.179.565 7.845 1.454l.495 6.938zM33.747 171.242c2.513 0 3.913-3.041 3.913-8.441 0-5.368-1.418-8.426-3.93-8.426-2.529 0-3.896 3.058-3.896 8.426 0 5.4 1.367 8.441 3.913 8.441m9.4-8.441c0 5.246-4.034 9.074-9.417 9.074-5.367 0-9.4-3.828-9.4-9.074 0-5.196 4.068-9.076 9.4-9.076 5.383 0 9.416 3.88 9.416 9.076M62.867 156.785c1.282-1.471 3.401-3.06 6.12-3.06 2.46 0 5.11 1.436 5.11 5.162v10.168l2.1 2.154v.256h-9.33v-.256l2-2.154v-10.186c0-1.726-.838-2.922-2.65-2.922-1.247 0-2.375.615-3.162 1.486.07.497.103 1.214.103 1.693v9.929l2 2.154v.256H55.93v-.256l2-2.154v-10.151c0-1.744-.89-2.957-2.616-2.957-1.11 0-2.342.513-3.128 1.385l.017 11.723 2 2.154v.256h-9.348v-.256l2.102-2.137v-11.945l-1.932-1.59v-.291l6.99-1.521.188.189-.017 2.341v.239c1.265-1.418 3.435-2.769 5.88-2.769 1.811 0 3.776.65 4.801 3.06M96.219 156.785c1.28-1.471 3.4-3.06 6.117-3.06 2.46 0 5.11 1.436 5.11 5.162v10.168l2.103 2.154v.256h-9.332v-.256l2-2.154v-10.186c0-1.726-.838-2.922-2.648-2.922-1.248 0-2.376.615-3.163 1.486.069.497.103 1.214.103 1.693v9.929l1.999 2.154v.256H89.28v-.256l2-2.154v-10.151c0-1.744-.89-2.957-2.616-2.957-1.11 0-2.341.513-3.127 1.385l.018 11.723 1.999 2.154v.256h-9.35v-.256l2.104-2.137v-11.945l-1.931-1.59v-.291l6.989-1.521.189.189-.018 2.341v.239c1.265-1.418 3.436-2.769 5.879-2.769 1.812 0 3.778.65 4.803 3.06M129.065 153.725l.186.188v14.493l1.796 1.896v.205l-6.306 1.367-.615-2.92c-1.249 1.314-3.966 2.92-6.58 2.92-2.615 0-5.076-1.658-5.076-5.144v-9.604l-1.913-1.589v-.29l6.989-1.522.17.188v11.638c0 2.051.547 3.913 2.702 3.913 1.263 0 2.819-.547 3.587-1.4v-10.938l-1.913-1.589v-.29l6.973-1.522zM144.795 171.465v-.256l2-2.154v-10.066c0-1.83-1.025-3.042-2.957-3.042-1.265 0-2.461.479-3.332 1.368v11.74l1.999 2.154v.256h-9.35v-.256l2.104-2.137v-11.945l-1.914-1.607v-.274l6.972-1.52.189.188v2.563c1.537-1.573 3.69-2.751 6.185-2.751 3.077 0 5.35 2.05 5.35 5.024v10.305l2.085 2.154v.256h-9.331zM160.643 145.83c1.709 0 2.957 1.196 2.957 2.752 0 1.623-1.248 2.75-2.957 2.75-1.691 0-2.922-1.127-2.922-2.75 0-1.59 1.23-2.752 2.922-2.752zm2.666 7.896l.188.188v15.14l2.102 2.155v.256h-9.45v-.256l2.1-2.137v-11.945l-1.913-1.59v-.291l6.973-1.52zM182.586 154.7l-.803 5.093h-.342c-1.197-2.155-2.307-4.033-3.486-5.28-.103-.019-.582-.138-.974-.138-2.717.068-4.153 2.922-4.153 7.246 0 4.682 2.084 7.451 5.502 7.451 1.846 0 3.743-.666 4.82-1.64l.239.222c-1.59 2.598-4.118 4.221-7.758 4.221-4.905 0-8.307-3.436-8.307-8.682 0-5.656 4.033-9.468 9.707-9.468 2.018 0 4.375.531 5.555.974M192.373 169.396c.957 0 1.777-.256 2.461-.785v-6.273c-3.008.496-4.889 2.103-4.889 4.427 0 1.572.736 2.631 2.428 2.631zm7.707-.99l1.777 1.896v.205l-6.271 1.368-.599-2.598c-1.401 1.538-3.366 2.598-5.503 2.598-2.648 0-4.562-1.385-4.562-3.794 0-3.812 4.648-5.948 9.912-6.392v-2.153c0-2.154-1.214-3.589-4.068-3.589-1.589 0-2.973.376-4.46 1.213l-.24-.325c1.846-1.828 4.58-3.076 7.844-3.076 4.94 0 6.17 2.461 6.17 5.982v8.665zM215.627 154.82h-5.195v12.201c0 1.812.837 2.752 2.341 2.752 1.282 0 2.426-.325 3.178-.855l.171.256c-1.128 1.42-3.196 2.701-5.827 2.701-2.855 0-5.094-1.623-5.094-4.854V154.82h-2.187v-.205l2.427-1.214 4.682-3.418h.309v4.188h5.195v.65zM222.192 145.83c1.71 0 2.956 1.196 2.956 2.752 0 1.623-1.247 2.75-2.956 2.75-1.692 0-2.923-1.127-2.923-2.75 0-1.59 1.231-2.752 2.923-2.752zm2.666 7.896l.188.188v15.14l2.102 2.155v.256h-9.45v-.256l2.101-2.137v-11.945l-1.914-1.59v-.291l6.973-1.52zM238.183 171.242c2.513 0 3.913-3.041 3.913-8.441 0-5.368-1.418-8.426-3.93-8.426-2.53 0-3.896 3.058-3.896 8.426 0 5.4 1.367 8.441 3.913 8.441m9.399-8.441c0 5.246-4.033 9.074-9.416 9.074-5.367 0-9.4-3.828-9.4-9.074 0-5.196 4.068-9.076 9.4-9.076 5.383 0 9.416 3.88 9.416 9.076M260.228 171.465v-.256l2-2.154v-10.066c0-1.83-1.024-3.042-2.957-3.042-1.264 0-2.46.479-3.332 1.368v11.74l2 2.154v.256h-9.35v-.256l2.103-2.137v-11.945l-1.913-1.607v-.274l6.971-1.52.19.188v2.563c1.536-1.573 3.69-2.751 6.185-2.751 3.077 0 5.35 2.05 5.35 5.024v10.305l2.084 2.154v.256h-9.33zM285.356 151.401l-4.204 11.433h8.356l-4.05-11.38-.052.015-.05-.068zm14.937 19.772v.291H288.86v-.29l2.647-2.768-1.658-4.649h-9.04l-1.692 4.631h.035l3.384 2.785v.291h-7.502v-.29l3.007-2.735 6.716-18.029-1.981-3.247v-.29h6.681l8.153 21.55 2.683 2.75zM309.508 154.477c-1.932 0-2.648 1.777-2.648 5.264 0 3.503.768 5.23 2.666 5.23 1.845 0 2.63-1.71 2.63-5.23 0-3.503-.768-5.264-2.648-5.264m6.63 20.423c0-1.727-1.537-2.205-3.725-2.205-1.11 0-2.41.068-3.708.068-1.42 0-2.838-.068-4.051-.376-.512.513-1.025 1.196-1.025 2.136 0 2.376 2.256 3.504 6.102 3.504 4.255 0 6.408-1.112 6.408-3.127m-1.743-19.893l4.682-2.87.205.05v3.674l-3.862-.205c1.265 1.077 1.999 2.478 1.999 4.085 0 3.47-3.246 5.981-7.894 5.981-1.54 0-2.821-.239-3.965-.718-.651.445-1.043 1.01-1.043 1.658 0 1.213 1.008 1.435 3.076 1.435h5.024c4.41 0 7.007 1.556 7.007 4.974 0 3.47-4.033 5.725-10.288 5.725-5.981 0-8.921-1.316-8.921-3.367 0-1.486 1.436-2.615 3.537-3.349-1.52-.565-2.204-1.64-2.204-2.974 0-2.017 1.504-3.384 3.128-4.392-2.154-1.145-3.265-2.957-3.265-5.025 0-3.708 3.675-5.964 7.896-5.964 1.846 0 3.504.444 4.888 1.282M326.291 161.16l5.964-.359c0-4.461-.889-6.324-2.786-6.324-2.016 0-3.076 2.581-3.178 6.683zm10.732 6.494c-1.624 2.598-4.033 4.221-7.776 4.221-5.075 0-8.356-3.623-8.356-8.75 0-5.571 3.639-9.4 8.851-9.4 4.871 0 7.692 3.539 7.692 7.93h-11.161c-.017.153-.017.29-.017.462.137 4.426 2.223 6.955 5.709 6.955 2.067 0 3.793-.786 4.802-1.641l.256.223zM350.664 171.465v-.256l2-2.154v-10.066c0-1.83-1.025-3.042-2.957-3.042-1.265 0-2.46.479-3.332 1.368v11.74l2 2.154v.256h-9.35v-.256l2.103-2.137v-11.945l-1.914-1.607v-.274l6.972-1.52.19.188v2.563c1.536-1.573 3.69-2.751 6.184-2.751 3.077 0 5.35 2.05 5.35 5.024v10.305l2.085 2.154v.256h-9.33zM376.177 154.7l-.804 5.093h-.342c-1.195-2.155-2.306-4.033-3.486-5.28-.101-.019-.58-.138-.973-.138-2.718.068-4.154 2.922-4.154 7.246 0 4.682 2.086 7.451 5.504 7.451 1.846 0 3.742-.666 4.818-1.64l.24.222c-1.59 2.598-4.118 4.221-7.76 4.221-4.903 0-8.304-3.436-8.304-8.682 0-5.656 4.033-9.468 9.707-9.468 2.016 0 4.375.531 5.554.974M390.974 154.17h4.632v.273l-2.086 2.17-6.511 15.518c-2.614 6.152-4.938 7.913-5.947 8.238l-2.29-3.896.137-.342c1.11-.24 4.887-.018 6.39-1.863l.82-1.864-6.714-15.824-1.83-2.137v-.273h9.45v.273l-1.81 2.154 3.692 9.69 3.896-9.69-1.83-2.154v-.273z"/>
    </g>
</svg>
