<svg xmlns="http://www.w3.org/2000/svg" width="75" height="165" viewBox="0 0 75 165">
    <g fill="#F7F7F7" fill-rule="evenodd">
        <path d="M49.183 106.1V91.478H0V106.1h49.183zM0 44.076h11.895V29.455h37.288V14.833H11.895V.212H0v43.864zm0 91.266h17.632v14.621H0v14.621h49.183v-14.621h-19.62v-14.621h19.62v-14.621H0v14.621zM0 76.856l25.665-18.158H0zM23.517 76.857h25.665v-18.16zM64.18 156.065v.149c-.715.22-2.408.874-2.981 2.45l-.014.036c-.078.32-.107.611-.107.853 0 1.96 1.997 2.94 4.936 2.94 2.988 0 4.83-1.101 4.83-2.997 0-.214-.022-.476-.093-.768l-.035-.064c-.566-1.562-2.28-2.237-2.981-2.45v-.149l2.882.206c.361 1.101.595 2.166.602 3.26v.064c0 3.168-2.125 5.405-5.17 5.405-3.087 0-5.346-2.081-5.346-5.383v-.086c.007-1.094.234-2.152.602-3.26l2.875-.206zM70.957 150.974c0-1.044-1.26-1.626-3.498-1.626-2.224 0-3.491.59-3.491 1.633 0 1.051 1.267 1.62 3.491 1.62 2.238 0 3.498-.569 3.498-1.627m-3.498-3.906c2.174 0 3.76 1.676 3.76 3.913 0 2.23-1.586 3.907-3.76 3.907-2.153 0-3.76-1.69-3.76-3.907 0-2.237 1.607-3.913 3.76-3.913M64.966 138.871c-.61-.533-1.268-1.413-1.268-2.543 0-1.023.595-2.124 2.14-2.124h4.212l.893-.873h.106v3.878h-.106l-.893-.831h-4.22c-.715 0-1.211.348-1.211 1.101 0 .518.255.987.616 1.314a5.85 5.85 0 0 1 .701-.043h4.114l.893-.83h.106v3.834h-.106l-.893-.83h-4.206c-.722 0-1.225.37-1.225 1.086 0 .462.212.974.574 1.3l4.857-.007.893-.83h.106v3.884h-.106l-.886-.873h-4.95l-.658.803h-.12l-.63-2.905.078-.079.97.008h.099c-.588-.526-1.148-1.428-1.148-2.444 0-.753.27-1.57 1.268-1.996M64.966 125.01c-.61-.533-1.268-1.413-1.268-2.543 0-1.022.595-2.124 2.14-2.124h4.212l.893-.873h.106v3.878h-.106l-.893-.831h-4.22c-.715 0-1.211.348-1.211 1.1 0 .52.255.988.616 1.315a5.85 5.85 0 0 1 .701-.043h4.114l.893-.83h.106v3.835h-.106l-.893-.831h-4.206c-.722 0-1.225.369-1.225 1.087 0 .461.212.973.574 1.3l4.857-.008.893-.83h.106v3.885h-.106l-.886-.874h-4.95l-.658.802h-.12l-.63-2.904.078-.079.97.007h.099c-.588-.525-1.148-1.428-1.148-2.443 0-.753.27-1.57 1.268-1.996M63.698 111.359l.078-.078h6.006l.785-.746h.085l.567 2.62-1.21.256c.544.519 1.21 1.648 1.21 2.735s-.687 2.11-2.132 2.11h-3.98l-.658.795h-.12l-.63-2.905.077-.071H68.6c.85 0 1.621-.227 1.621-1.123 0-.525-.227-1.171-.58-1.49h-4.532l-.659.795h-.12l-.63-2.898zM71.049 104.82h-.106l-.893-.83h-4.17c-.759 0-1.261.426-1.261 1.229 0 .525.198 1.022.567 1.384h4.864l.893-.83h.106v3.885h-.106l-.886-.874h-4.95l-.665.796h-.114l-.63-2.898.078-.079h1.062c-.651-.638-1.14-1.534-1.14-2.57 0-1.28.85-2.224 2.082-2.224h4.27l.893-.866h.106v3.878zM60.427 98.234c0-.71.495-1.229 1.14-1.229.673 0 1.14.519 1.14 1.23 0 .702-.467 1.214-1.14 1.214-.659 0-1.14-.512-1.14-1.215zm3.272-1.108l.077-.078h6.274l.893-.874h.106v3.928h-.106l-.886-.873h-4.95l-.658.795h-.12l-.63-2.898zM64.102 89.114l2.11.334v.142c-.892.498-1.67.959-2.188 1.449-.007.043-.056.242-.056.405.028 1.129 1.21 1.726 3.002 1.726 1.94 0 3.087-.866 3.087-2.287 0-.767-.275-1.556-.68-2.003l.093-.1c1.076.66 1.749 1.712 1.749 3.225 0 2.038-1.424 3.452-3.598 3.452-2.343 0-3.923-1.676-3.923-4.034 0-.839.22-1.818.404-2.309M70.192 85.046c0-.397-.106-.738-.325-1.022h-2.6c.206 1.25.872 2.032 1.835 2.032.651 0 1.09-.306 1.09-1.01zm-.41-3.203l.785-.738h.085l.567 2.606-1.076.25c.637.581 1.076 1.398 1.076 2.286 0 1.1-.574 1.896-1.572 1.896-1.58 0-2.465-1.932-2.649-4.12h-.892c-.892 0-1.487.505-1.487 1.691 0 .66.156 1.236.503 1.854l-.135.1c-.757-.767-1.275-1.904-1.275-3.26 0-2.053 1.02-2.565 2.48-2.565h3.59zM64.152 75.382v2.159h5.056c.75 0 1.14-.348 1.14-.973 0-.533-.135-1.008-.354-1.32l.106-.072c.588.469 1.119 1.328 1.119 2.422 0 1.186-.673 2.117-2.011 2.117h-5.056v.909h-.085l-.503-1.009-1.417-1.946v-.128h1.736v-2.16h.269zM60.427 72.653c0-.71.495-1.229 1.14-1.229.673 0 1.14.519 1.14 1.229 0 .703-.467 1.215-1.14 1.215-.659 0-1.14-.512-1.14-1.215zm3.272-1.108l.077-.078h6.274l.893-.874h.106v3.928h-.106l-.886-.873h-4.95l-.658.795h-.12l-.63-2.898zM70.957 66.007c0-1.044-1.26-1.626-3.498-1.626-2.224 0-3.491.59-3.491 1.633 0 1.051 1.267 1.62 3.491 1.62 2.238 0 3.498-.569 3.498-1.627m-3.498-3.906c2.174 0 3.76 1.676 3.76 3.913 0 2.23-1.586 3.907-3.76 3.907-2.153 0-3.76-1.69-3.76-3.907 0-2.237 1.607-3.913 3.76-3.913M71.049 56.845h-.106l-.893-.832h-4.17c-.759 0-1.261.426-1.261 1.23 0 .525.198 1.022.567 1.384h4.864l.893-.83h.106v3.885h-.106l-.886-.874h-4.95l-.665.795h-.114l-.63-2.897.078-.079h1.062c-.651-.639-1.14-1.534-1.14-2.57 0-1.28.85-2.224 2.082-2.224h4.27l.893-.867h.106v3.879zM62.735 46.401l4.738 1.748v-3.473l-4.716 1.683.006.021-.028.021zm8.193-6.208h.12v4.752h-.12l-1.146-1.1-1.927.689v3.757l1.92.703v-.015l1.153-1.406h.12v3.118h-.12l-1.133-1.25-7.47-2.791-1.346.824h-.12v-2.777l8.93-3.389 1.14-1.115zM64.01 36.363c0 .803.736 1.1 2.181 1.1 1.452 0 2.167-.318 2.167-1.107 0-.767-.708-1.093-2.167-1.093-1.451 0-2.181.319-2.181 1.1m8.463-2.756c-.716 0-.914.64-.914 1.549 0 .461.028 1.001.028 1.541 0 .59-.028 1.18-.156 1.684.213.212.496.426.885.426.985 0 1.452-.938 1.452-2.536 0-1.769-.46-2.664-1.295-2.664m-8.243.725l-1.19-1.946.021-.085h1.522l-.084 1.605c.446-.526 1.026-.831 1.692-.831 1.438 0 2.479 1.349 2.479 3.28 0 .64-.1 1.173-.298 1.649.184.27.418.433.687.433.503 0 .595-.419.595-1.278V35.07c0-1.833.644-2.913 2.06-2.913 1.438 0 2.373 1.677 2.373 4.276 0 2.486-.545 3.708-1.395 3.708-.616 0-1.084-.597-1.388-1.47-.234.632-.68.916-1.232.916-.836 0-1.402-.625-1.82-1.3-.475.895-1.225 1.357-2.082 1.357-1.537 0-2.472-1.527-2.472-3.282 0-.767.184-1.456.532-2.031M66.779 29.388l-.149-2.479c-1.848 0-2.62.37-2.62 1.158 0 .838 1.07 1.278 2.769 1.32zm2.69-4.46c1.077.674 1.75 1.676 1.75 3.231 0 2.11-1.501 3.473-3.626 3.473-2.308 0-3.895-1.512-3.895-3.678 0-2.025 1.467-3.197 3.286-3.197v4.638c.064.007.12.007.192.007 1.834-.057 2.881-.923 2.881-2.372 0-.86-.325-1.577-.68-1.996l.093-.107zM71.049 19.258h-.106l-.893-.831h-4.17c-.759 0-1.261.426-1.261 1.229 0 .525.198 1.023.567 1.385h4.864l.893-.831h.106v3.885h-.106l-.886-.874h-4.95l-.665.796h-.114l-.63-2.898.078-.078h1.062c-.651-.64-1.14-1.534-1.14-2.571 0-1.279.85-2.224 2.082-2.224h4.27l.893-.866h.106v3.878zM64.102 8.654l2.11.335v.142c-.892.496-1.67.958-2.188 1.449-.007.042-.056.24-.056.404.028 1.13 1.21 1.726 3.002 1.726 1.94 0 3.087-.866 3.087-2.287 0-.767-.275-1.555-.68-2.003l.093-.1c1.076.661 1.749 1.712 1.749 3.226 0 2.038-1.424 3.451-3.598 3.451-2.343 0-3.923-1.676-3.923-4.034 0-.838.22-1.819.404-2.309M63.883 2.505V.58h.113l.899.867 6.43 2.706c2.55 1.086 3.279 2.052 3.413 2.471l-1.614.952-.142-.057c-.1-.462-.007-2.031-.772-2.656l-.772-.34-6.557 2.79-.885.76h-.113V4.146h.113l.892.752 4.015-1.534-4.015-1.62-.892.76h-.113z"/>
    </g>
</svg>
