<svg xmlns="http://www.w3.org/2000/svg" width="17" height="25" viewBox="0 0 17 25">
    <g fill="#FFF" fill-rule="evenodd">
        <path fill-rule="nonzero" d="M8.5 0C3.813 0 0 3.737 0 8.33v8.341C0 21.264 3.813 25 8.5 25c4.687 0 8.5-3.736 8.5-8.329V8.33C17 3.737 13.187 0 8.5 0zm7.556 16.671c0 4.082-3.39 7.403-7.556 7.403S.944 20.754.944 16.671V8.33C.944 4.247 4.334.926 8.5.926s7.556 3.321 7.556 7.403v8.342z"/>
        <path d="M8.5 5c-.276 0-.5.202-.5.452v4.096c0 .25.224.452.5.452s.5-.202.5-.452V5.452C9 5.202 8.776 5 8.5 5z"/>
    </g>
</svg>
