<svg xmlns="http://www.w3.org/2000/svg" xmlns:xlink="http://www.w3.org/1999/xlink" width="125" height="41" viewBox="0 0 125 41">
    <defs>
        <path id="prefix__a" d="M0 0.01L24.247 0.01 24.247 28.747 0 28.747z"/>
    </defs>
    <g fill="none" fill-rule="evenodd">
        <path fill="#FACE77" d="M1.023 38.056L80.504 38.056 80.504 37.674 1.023 37.674z"/>
        <g transform="translate(0 .457)">
            <mask id="prefix__b" fill="#fff">
                <use xlink:href="#prefix__a"/>
            </mask>
            <path fill="#FACE77" d="M0 21.917l6.197-3.157c1.122 2.29 3.053 3.828 6.6 3.828 3.413 0 4.265-1.183 4.265-2.25 0-1.696-1.795-2.368-6.51-3.512-4.67-1.145-9.25-3.119-9.25-8.408C1.302 3.089 6.421.01 11.854.01c5.164 0 9.204 2.171 11.494 6.237l-6.06 3.118c-1.078-1.974-2.56-3.197-5.434-3.197-2.245 0-3.368.987-3.368 2.092 0 1.263.764 2.131 5.658 3.434 4.76 1.263 10.103 2.724 10.103 8.566 0 5.328-4.85 8.487-11.674 8.487-6.601 0-10.822-2.764-12.573-6.83" mask="url(#prefix__b)"/>
        </g>
        <path fill="#FACE77" d="M59.046 28.653L51.861 28.653 51.861 13.28 43.734 25.003 42.926 25.003 34.799 13.28 34.799 28.653 27.615 28.653 27.615 1.023 34.799 1.023 43.33 13.298 51.861 1.023 59.046 1.023zM103.299 22.575L103.299 28.653 84.89 28.653 84.89 1.023 92.073 1.023 92.073 22.575zM124.777 22.575L124.777 28.653 106.368 28.653 106.368 1.023 113.552 1.023 113.552 22.575zM68.525 16.004L72.207 1.023 75.889 16.004zM64.434 29.402L66.005 23.524 77.68 23.524 79.252 29.402zM91.244 39.999L90.889 39.999 90.889 36.097 88.306 36.097 88.306 39.999 87.958 39.999 87.958 35.797 91.244 35.797z"/>
        <path fill="#FACE77" d="M91.731 40.486L90.889 40.486 90.889 36.584 88.793 36.584 88.793 40.486 87.958 40.486 87.958 35.797 91.731 35.797zM97.766 37.1c0-.583-.454-1.003-1.085-1.003h-1.216v1.999h1.216c.63 0 1.085-.42 1.085-.996m.348 0c0 .738-.605 1.296-1.433 1.296h-1.216V40h-.348v-4.202h1.564c.828 0 1.433.558 1.433 1.303"/>
        <path fill="#FACE77" d="M95.952 38.096h.973c.495 0 .841-.31.841-.753 0-.447-.346-.759-.841-.759h-.973v1.512zm0 2.39h-.835v-4.69h1.808c.956 0 1.676.666 1.676 1.547 0 .878-.72 1.54-1.676 1.54h-.973v1.603zM103.902 39.699L103.902 40 101.254 40 101.254 35.797 103.869 35.797 103.869 36.098 101.602 36.098 101.602 37.73 103.705 37.73 103.705 38.031 101.602 38.031 101.602 39.699z"/>
        <path fill="#FACE77" d="M104.389 40.486L101.254 40.486 101.254 35.797 104.356 35.797 104.356 36.584 102.088 36.584 102.088 37.73 104.192 37.73 104.192 38.517 102.088 38.517 102.088 39.699 104.389 39.699zM110.528 39.999L110.18 39.999 110.18 36.265 108.477 38.846 108.418 38.846 106.716 36.265 106.716 39.999 106.368 39.999 106.368 35.797 106.801 35.797 108.444 38.282 110.088 35.797 110.528 35.797z"/>
        <path fill="#FACE77" d="M111.014 40.585L110.18 40.585 110.18 37.418 108.852 39.432 108.531 39.432 107.203 37.419 107.203 40.585 106.368 40.585 106.368 35.896 106.716 35.896 106.716 35.797 106.781 35.896 107.175 35.896 108.688 38.183 110.2 35.896 110.601 35.896 110.666 35.797 110.666 35.896 111.014 35.896zM118.596 36.386L115.875 39.999 115.572 39.999 115.572 35.797 115.921 35.797 115.921 39.41 118.635 35.797 118.944 35.797 118.944 39.999 118.596 39.999z"/>
        <path fill="#FACE77" d="M118.408 40.486L117.573 40.486 117.573 37.356 115.216 40.486 114.55 40.486 114.55 35.797 115.385 35.797 115.385 38.925 117.734 35.797 118.408 35.797zM123.644 37.976v-1.878h-1.473c-.551 0-1.005.419-1.005.942 0 .516.454.936 1.005.936h1.473zm.348 2.023h-.348v-1.723h-1.262L121.08 40h-.394l1.308-1.735c-.664-.077-1.176-.6-1.176-1.224 0-.685.605-1.243 1.353-1.243h1.821v4.202z"/>
        <path fill="#FACE77" d="M122.66 36.584c-.42 0-.762.314-.762.699 0 .382.342.693.762.693h1.229v-1.392h-1.229zm2.064 3.902h-.835v-1.723h-.898l-1.3 1.723h-1.005l1.38-1.83c-.592-.22-1.003-.758-1.003-1.373 0-.82.716-1.486 1.597-1.486h2.064v4.689z"/>
    </g>
</svg>
