<svg xmlns="http://www.w3.org/2000/svg" width="297" height="278" viewBox="0 0 297 278">
    <path fill-rule="evenodd" d="M55.815 132C29.137 132 12.078 119.308 5 100.632l25.044-14.506c4.537 10.517 12.341 17.588 26.678 17.588 13.793 0 17.241-5.44 17.241-10.335 0-7.797-7.26-10.879-26.315-16.137-18.874-5.258-37.385-14.324-37.385-38.621C10.263 14.143 30.952 0 52.911 0c20.87 0 37.204 9.973 46.46 28.648l-24.5 14.325c-4.356-9.066-10.345-14.687-21.96-14.687-9.074 0-13.611 4.533-13.611 9.61 0 5.802 3.085 9.79 22.867 15.774C81.404 59.473 103 66.181 103 93.016 103 117.495 83.4 132 55.815 132zM244 3v127h-29.029V56.159l-32.838 53.884h-3.266L146.03 56.159V130H117V3h29.029L180.5 59.424 214.971 3H244zM92.088 278l-6.382-19.957H38.294L31.912 278H0l43.4-127h37.2L124 278H92.088zM47 231h30l-15-47-15 47zm117.268 19.06H210V278h-75V151h29.268v99.06zm87 0H297V278h-75V151h29.268v99.06z"/>
</svg>
