<svg xmlns="http://www.w3.org/2000/svg" width="93" height="17" viewBox="0 0 93 17">
    <g fill="#FEFEFE" fill-rule="evenodd">
        <path d="M89.35.579L89.35 16.416 93 16.416 93 .579zM78.4 11.755L78.396 11.777 78.396 11.755 73.897.557 70.017.557 70.017 16.416 73.663 16.416 73.663 12.119 73.506 9.38 76.517 16.464 78.216 16.464 78.396 16.464 80.279 16.464 83.291 9.38 83.134 12.119 83.134 16.416 86.784 16.416 86.784.557 82.9.557z"/>
        <path fill-rule="nonzero" d="M60.91 0c-1.604 0-3.851.439-5.438 2.537-.692.882-1.043 1.975-1.043 3.244v5.46c0 1.778.814 3.424 2.18 4.403 1.3.886 2.796 1.356 4.329 1.356 1.51 0 3.047-.483 4.324-1.356 1.366-.98 2.18-2.625 2.18-4.403v-5.46C67.442 1.54 63.536 0 60.91 0zm2.819 10.666c0 1.694-1.15 2.875-2.791 2.875-1.645 0-2.796-1.18-2.796-2.875V6.33c0-1.69 1.137-2.87 2.769-2.87 1.631 0 2.818 1.207 2.818 2.87v4.337zM41.3 10.082c1.47-.882 2.382-2.73 2.382-4.402 0-2.665-2.23-5.1-4.972-5.1h-8.09v15.884h3.645v-5.666h3.2l.018.044 2.463 5.622h4.019L41.15 10.17l.148-.088zm-2.59-2.844h-4.445V4.144h4.445c.706 0 1.3.847 1.3 1.536 0 .71-.58 1.558-1.3 1.558zM21.517 0c-1.604 0-3.852.439-5.443 2.537-.692.882-1.043 1.975-1.043 3.244v5.46c0 1.778.818 3.424 2.18 4.403 1.3.886 2.796 1.356 4.329 1.356 1.51 0 3.047-.483 4.328-1.356 1.362-.98 2.18-2.625 2.18-4.403v-5.46c0-4.24-3.906-5.781-6.53-5.781zm2.819 10.666c0 1.694-1.151 2.875-2.796 2.875-1.645 0-2.792-1.18-2.792-2.875V6.33c0-1.69 1.138-2.87 2.77-2.87 1.63 0 2.818 1.207 2.818 2.87v4.337zM11.404 8.423s1.532-1.102 1.532-3.028c0-2.713-2.26-4.92-5.038-4.92H0v16.05h8.064c2.782 0 5.043-2.198 5.043-4.898 0-2.006-1.703-3.204-1.703-3.204zM3.699 4.108h4.199c.714 0 1.317.589 1.317 1.287 0 .724-.594 1.312-1.317 1.312H3.699V4.108zm4.365 8.806H3.699v-2.599h4.32c.75 0 1.366.588 1.366 1.312 0 .698-.606 1.287-1.321 1.287z"/>
        <path d="M48.208 11.68c0 1.251-.346 1.756-1.627 1.756-.477 0-.877-.022-1.218-.048v3.265c.544.097 1.133.154 1.595.154 3.295 0 4.9-1.47 4.9-4.688V.579h-3.65V11.68z"/>
    </g>
</svg>
