<svg xmlns="http://www.w3.org/2000/svg" xmlns:xlink="http://www.w3.org/1999/xlink" width="103" height="57" viewBox="0 0 103 57">
    <defs>
        <path id="prefix__a" d="M0 0.756L102.326 0.756 102.326 6.97 0 6.97z"/>
    </defs>
    <g fill="none" fill-rule="evenodd">
        <path fill="#EA3592" d="M61.65 15.964c-1.352-.541-2.943.875-3.553 2.31-.607 1.434-.812 4.296-.812 4.296s1.01.666 2.341.69c1.613.026 2.687-1.351 3.142-2.748.713-2.198.236-4.006-1.118-4.548"/>
        <path fill="#EA3592" fill-rule="nonzero" d="M62.561 13.255c1.993 0 3.678 1.325 3.655 4.074-.013.745-.106 1.471-.265 2.16l8.305-9.294L59.934 7.02l-1.36 8.129c1.244-1.35 2.605-1.895 3.986-1.895m-8.646 10.807l.873-5.204v.001l2.098-12.512L28.243 0C36.772 6.166 42.824 12.616 45.5 21.141l1.291-7.655h3.164l-.583 2.783c.719-1.193 2.226-2.654 3.601-2.92.261-.052.774-.055.923-.04l-.56 3.512c-1.364-.205-4.087.907-4.473 3.116l-.958 5.72h-1.341c.03.184.062.369.089.555.663 4.55.495 9.675-.62 15.574l14.319-16.028c-.14-.002-.252-.117-.251-.257 0-.14.114-.253.254-.253s.254.113.255.253c.001.14-.111.255-.251.257"/>
        <path fill="#7B838D" d="M63.361 22.396l-.018.019.007-.007c.003-.005.007-.009.011-.012"/>
        <path fill="#EA3592" fill-rule="nonzero" d="M73.968 51.618l.21.35c.441.735.659 1.369.78 2.263l.047.385 1.736-2.223-2.772-.775h-.001zm-41.138.35c.442.735.659 1.369.779 2.263l.049.385 1.735-2.223-2.773-.775.21.35z"/>
        <g transform="translate(0 49.138)">
            <mask id="prefix__b" fill="#fff">
                <use xlink:href="#prefix__a"/>
            </mask>
            <path fill="#7B838D" fill-rule="nonzero" d="M100.282 5.814V4.245h1.581l.151-.987h-1.733V1.911h1.969V.87h-3.291v5.986h3.206l.16-1.042h-2.044zM95.718.87l-1.144 4.07L93.515.87h-1.692l-.362 5.986h1.162l.234-4.354 1.11 4.354h1.003l1.304-4.496.186 4.496h1.227l-.3-5.986h-1.669zm-7.866 5.016h-.01c-.89 0-1.422-.883-1.422-2.02 0-1.118.514-2.027 1.433-2.027.907 0 1.404.926 1.404 2.001 0 1.18-.513 2.045-1.405 2.045zm.033-5.13c-1.692 0-2.794 1.347-2.794 3.145 0 1.72 1.002 3.068 2.692 3.068h.008c1.684 0 2.811-1.189 2.811-3.173 0-1.658-.958-3.04-2.717-3.04zm-5.158 2.5h-2.28V.87h-1.331v5.987h1.332V4.245h2.278v2.61h1.33V.87h-1.33v2.39-.002zm-13 .99h1.584l.149-.987h-1.732V1.91h1.969V.871h-3.29v5.986h3.206l.16-1.042H69.73v-1.57l-.001.001zm-3.812.364L63.886.87h-1.479v5.986h1.162V2.713l2.177 4.143h1.33V.87h-1.161v3.74zm-6.718-.364h1.583l.153-.987h-1.735V1.91h1.972V.871h-3.293v5.986h3.206l.16-1.042h-2.045v-1.57.001zm-4.007 2.61h1.33V.87h-1.33v5.986zM51.7 4.406h.816V5.78c-.101.044-.37.08-.665.08-1.093 0-1.866-.732-1.866-2.003 0-1.312.848-1.965 1.957-1.965.649 0 1.054.116 1.374.264l.178-1.154c-.313-.124-.845-.246-1.517-.246-1.902 0-3.307 1.154-3.314 3.183 0 .89.294 1.682.817 2.22.537.53 1.305.81 2.365.81.765 0 1.589-.203 1.992-.343v-3.21h-1.985l-.151.988h-.001zm-5.604-.96L44.975.87h-1.439l1.827 3.608v2.379h1.328V4.493L48.474.87h-1.176l-1.203 2.576zm-4.74-.187h-2.28V.869h-1.329v5.987h1.33v-2.61h2.28v2.61h1.33V.868h-1.33v2.39zm-12.47 0h-2.278V.869h-1.33v5.987h1.33v-2.61h2.28v2.61h1.33V.868h-1.33v2.39h-.001zM19.873 1.91h1.506v4.946h1.33V1.91h1.49L24.35.87h-4.478V1.91zM17.975.871h-1.33v5.986h3.198l.16-1.042h-2.028V.87zm-5.543 3.448l.616-2.223.587 2.223h-1.203zM12.272.87l-1.826 5.987h1.288l.422-1.527h1.749l.405 1.526h1.346L13.856.87h-1.584zm-4.69 3.375h1.583l.15-.987H7.582V1.911H9.55V.87H6.26v5.986h3.206l.16-1.042H7.581v-1.57zM3.61 3.258H1.328V.87H0v5.986h1.328v-2.61H3.61v2.61h1.328V.868H3.61v2.39z" mask="url(#prefix__b)"/>
        </g>
    </g>
</svg>
